<svg width="171" height="41" viewBox="0 0 171 41" fill="none" xmlns="http://www.w3.org/2000/svg">
<path d="M40.5 14.2344V13.7656C40.5 12.1719 40.5781 10.8359 40.7344 9.75781C40.8906 8.67188 41.1602 7.78906 41.543 7.10938C41.9258 6.42969 42.4453 5.91016 43.1016 5.55078C43.7656 5.19141 44.5977 4.94922 45.5977 4.82422C46.5977 4.69141 47.8008 4.625 49.207 4.625H53.6133C55.457 4.625 56.9531 4.69531 58.1016 4.83594C59.2578 4.97656 60.1445 5.24609 60.7617 5.64453C61.3867 6.04297 61.8164 6.625 62.0508 7.39062C62.2852 8.14844 62.4023 9.14453 62.4023 10.3789H60.1523C60.1523 9.44922 60.0703 8.72656 59.9062 8.21094C59.7422 7.6875 59.4336 7.3125 58.9805 7.08594C58.5273 6.85156 57.8672 6.70703 57 6.65234C56.1406 6.59766 55.0117 6.57031 53.6133 6.57031H49.207C48.0898 6.57031 47.1484 6.60547 46.3828 6.67578C45.6172 6.73828 44.9922 6.89062 44.5078 7.13281C44.0312 7.36719 43.6641 7.74219 43.4062 8.25781C43.1562 8.77344 42.9844 9.47656 42.8906 10.3672C42.7969 11.2578 42.75 12.3906 42.75 13.7656V14.2344C42.75 15.5625 42.7969 16.6641 42.8906 17.5391C42.9844 18.4141 43.1562 19.1133 43.4062 19.6367C43.6641 20.1602 44.0312 20.5508 44.5078 20.8086C44.9922 21.0664 45.6172 21.2344 46.3828 21.3125C47.1484 21.3906 48.0898 21.4297 49.207 21.4297H54.3984C55.6875 21.4297 56.7266 21.3789 57.5156 21.2773C58.3047 21.168 58.9023 20.9414 59.3086 20.5977C59.7227 20.2461 60 19.7148 60.1406 19.0039C60.2812 18.2852 60.3516 17.3164 60.3516 16.0977V15.4062H51.7383V13.5312H62.6016V16.0977C62.6016 17.6211 62.4727 18.8594 62.2148 19.8125C61.957 20.7656 61.5195 21.5039 60.9023 22.0273C60.293 22.543 59.457 22.8945 58.3945 23.082C57.3398 23.2773 56.0078 23.375 54.3984 23.375H49.207C47.4492 23.375 46.0039 23.2539 44.8711 23.0117C43.7383 22.7773 42.8516 22.3398 42.2109 21.6992C41.5781 21.0586 41.1328 20.1367 40.875 18.9336C40.625 17.7305 40.5 16.1641 40.5 14.2344ZM66.8203 5H78.8672C80.625 5 82.0391 5.07813 83.1094 5.23438C84.1875 5.39062 85.0039 5.66016 85.5586 6.04297C86.1133 6.42578 86.4883 6.94922 86.6836 7.61328C86.8789 8.27734 86.9766 9.11719 86.9766 10.1328V10.6016C86.9766 11.5391 86.8633 12.3477 86.6367 13.0273C86.418 13.6992 85.9922 14.2461 85.3594 14.668C84.7266 15.082 83.7891 15.375 82.5469 15.5469L86.4609 23H84.2109L80.3789 15.7109C80.2227 15.7188 80.0586 15.7227 79.8867 15.7227C79.7227 15.7227 79.5508 15.7227 79.3711 15.7227H69.0703V23H66.8203V5ZM69.0703 13.7773H79.0195C80.3555 13.7773 81.4062 13.7344 82.1719 13.6484C82.9453 13.5547 83.5117 13.3945 83.8711 13.168C84.2383 12.9414 84.4727 12.6211 84.5742 12.207C84.6758 11.793 84.7266 11.2578 84.7266 10.6016V10.1328C84.7266 9.39062 84.6562 8.80469 84.5156 8.375C84.375 7.94531 84.0938 7.62891 83.6719 7.42578C83.25 7.22266 82.6211 7.09375 81.7852 7.03906C80.9492 6.97656 79.832 6.94531 78.4336 6.94531H69.0703V13.7773ZM89.7422 23L100.242 5H103.242L113.742 23H111.117L108.867 18.875H94.6172L92.3672 23H89.7422ZM95.7422 17H107.742L101.742 6.5L95.7422 17ZM124.992 23L115.289 5H117.867L126.492 21.4062L135.117 5H137.66L127.992 23H124.992ZM140.742 23V5H142.992V23H140.742ZM166.652 17.7969C166.652 17.1016 166.598 16.5547 166.488 16.1562C166.379 15.7578 166.133 15.4648 165.75 15.2773C165.367 15.082 164.773 14.957 163.969 14.9023C163.164 14.8398 162.062 14.7969 160.664 14.7734L154.148 14.6797C152.539 14.6562 151.246 14.5586 150.27 14.3867C149.293 14.2148 148.555 13.9453 148.055 13.5781C147.555 13.2031 147.219 12.7031 147.047 12.0781C146.883 11.4531 146.801 10.6719 146.801 9.73438C146.801 8.71094 146.914 7.86719 147.141 7.20312C147.375 6.53906 147.793 6.01953 148.395 5.64453C149.004 5.26953 149.863 5.00781 150.973 4.85938C152.082 4.70313 153.516 4.625 155.273 4.625H160.289C161.883 4.625 163.211 4.67578 164.273 4.77734C165.336 4.87891 166.18 5.11328 166.805 5.48047C167.43 5.84766 167.875 6.41797 168.141 7.19141C168.414 7.96484 168.551 9.02734 168.551 10.3789H166.301C166.301 9.33203 166.199 8.54297 165.996 8.01172C165.801 7.47266 165.473 7.10547 165.012 6.91016C164.559 6.71484 163.945 6.60937 163.172 6.59375C162.398 6.57813 161.438 6.57031 160.289 6.57031H155.391C153.992 6.57031 152.871 6.59766 152.027 6.65234C151.191 6.70703 150.559 6.83203 150.129 7.02734C149.699 7.22266 149.41 7.53516 149.262 7.96484C149.121 8.39453 149.051 8.98438 149.051 9.73438C149.051 10.3672 149.102 10.875 149.203 11.2578C149.305 11.6406 149.531 11.9336 149.883 12.1367C150.242 12.332 150.793 12.4688 151.535 12.5469C152.277 12.6172 153.289 12.6602 154.57 12.6758L161.555 12.7695C163.195 12.793 164.504 12.8906 165.48 13.0625C166.465 13.2266 167.199 13.4961 167.684 13.8711C168.176 14.2461 168.5 14.7539 168.656 15.3945C168.82 16.0273 168.902 16.8281 168.902 17.7969C168.902 18.8516 168.801 19.7383 168.598 20.457C168.402 21.168 168.02 21.7383 167.449 22.168C166.879 22.5977 166.055 22.9062 164.977 23.0938C163.898 23.2812 162.48 23.375 160.723 23.375H155.238C153.637 23.375 152.293 23.3047 151.207 23.1641C150.121 23.0234 149.254 22.7422 148.605 22.3203C147.965 21.8906 147.504 21.2539 147.223 20.4102C146.941 19.5664 146.801 18.4414 146.801 17.0352H149.051C149.051 18.1367 149.141 18.9883 149.32 19.5898C149.5 20.1914 149.812 20.625 150.258 20.8906C150.711 21.1484 151.34 21.3047 152.145 21.3594C152.957 21.4062 153.988 21.4297 155.238 21.4297H160.605C162.004 21.4297 163.109 21.3867 163.922 21.3008C164.734 21.207 165.336 21.0352 165.727 20.7852C166.117 20.5273 166.367 20.1602 166.477 19.6836C166.594 19.207 166.652 18.5781 166.652 17.7969Z" fill="black"/>
<path d="M43.457 27.965V37H41.975V27.965H43.457ZM54.6457 37H53.1637L48.7047 30.253V37H47.2227V27.952H48.7047L53.1637 34.686V27.952H54.6457V37ZM61.3629 27.965C62.3249 27.965 63.1655 28.1513 63.8849 28.524C64.6129 28.888 65.1719 29.4167 65.5619 30.11C65.9605 30.7947 66.1599 31.5963 66.1599 32.515C66.1599 33.4337 65.9605 34.231 65.5619 34.907C65.1719 35.583 64.6129 36.103 63.8849 36.467C63.1655 36.8223 62.3249 37 61.3629 37H58.4119V27.965H61.3629ZM61.3629 35.791C62.4202 35.791 63.2305 35.505 63.7939 34.933C64.3572 34.361 64.6389 33.555 64.6389 32.515C64.6389 31.4663 64.3572 30.6473 63.7939 30.058C63.2305 29.4687 62.4202 29.174 61.3629 29.174H59.8939V35.791H61.3629ZM70.9307 27.965V37H69.4487V27.965H70.9307ZM80.1434 35.154H76.3604L75.7104 37H74.1634L77.4004 27.952H79.1164L82.3534 37H80.7934L80.1434 35.154ZM79.7274 33.945L78.2584 29.746L76.7764 33.945H79.7274Z" fill="#4E4E4E"/>
<path d="M15.0247 2.75954C14.9877 2.85384 14.8728 2.90571 14.8589 3.01416C14.845 3.12733 14.77 3.24143 14.7755 3.35366C14.7811 3.48097 14.8163 3.53095 14.7107 3.6262C14.6431 3.68844 14.5486 3.62525 14.4717 3.68655C14.3819 3.75634 14.5375 3.89685 14.3967 3.93646C14.3587 3.94683 14.191 3.97418 14.1781 4.03453C14.1549 4.14487 14.1438 4.25804 14.1077 4.36649C14.0753 4.46268 13.9752 4.47588 13.9715 4.57867C13.966 4.70504 13.7798 4.61262 13.7307 4.59187C13.5927 4.53246 13.4824 4.42118 13.3796 4.5617C13.3268 4.63337 13.3268 4.67203 13.3815 4.73144C13.438 4.79368 13.5074 4.69184 13.5315 4.79086C13.5371 4.81443 13.601 4.92854 13.5908 4.95023C13.5565 5.02002 13.4695 5.04454 13.4343 5.12187C13.4074 5.18222 13.4056 5.25672 13.4 5.32179C13.3824 5.50663 13.3963 5.54246 13.551 5.53398C13.7186 5.52643 14.0456 5.61508 13.9178 5.84235C13.7733 6.10263 14.0521 6.15921 14.1457 6.34876C14.242 6.54115 14.1809 6.64865 14.0197 6.7439C13.9613 6.77785 13.7807 6.7373 13.7585 6.8118C13.7335 6.89762 13.5871 6.85801 13.5769 6.94383C13.5602 7.07868 13.6455 7.09 13.4843 7.15601C13.3805 7.19939 13.262 7.05982 13.2296 6.96646C13.1731 6.80709 13.2212 6.74862 13.0813 6.66657C12.9609 6.59584 12.9341 6.76654 12.9387 6.86084C12.9424 6.96175 12.9276 7.06925 12.9368 7.16733C12.9406 7.19845 13.1332 7.22203 13.1165 7.25598C13.0851 7.32199 13.0508 7.3069 13.1036 7.40686C13.1314 7.45779 13.2221 7.50871 13.2296 7.56624C13.249 7.71995 13.1332 7.87273 13.2657 8.00758C13.4037 8.14715 13.1638 8.20279 13.1731 8.31973C13.1731 8.31973 13.6492 11.7336 10.3664 16.0725C7.94968 19.2666 6.19991 21.3111 5.43202 23.0388C5.38385 22.9756 5.32364 22.9577 5.30882 22.8426C5.29492 22.7389 5.30697 22.6521 5.38941 22.5861C5.44776 22.5408 5.44869 22.554 5.44684 22.4635C5.44591 22.422 5.47555 22.2994 5.52464 22.2994C5.40608 22.2796 5.28196 22.2758 5.28566 22.0816C5.28659 22.042 5.48945 21.8751 5.45425 21.8675C5.34309 21.8411 5.26806 21.9392 5.26343 21.7477C5.26251 21.7129 5.25046 21.5063 5.28288 21.4875C5.13468 21.5723 5.11708 21.7515 5.1708 21.9005C5.19303 21.9646 5.23657 22.042 5.17265 22.0948C5.1495 22.1146 5.09855 22.1316 5.12171 22.1768C5.17821 22.29 5.26343 22.4107 5.17821 22.5408C5.12727 22.6201 5.04575 22.6625 4.99758 22.7474C4.96238 22.8096 4.95683 22.8794 4.92533 22.9416C4.85401 23.084 4.66227 23.0152 4.58909 23.1199C4.52332 23.2161 4.47886 23.2444 4.35659 23.2632C4.21116 23.2858 4.14169 23.317 4.02405 23.4264C3.94346 23.5028 3.76469 23.5009 3.6628 23.5395C3.57572 23.5725 3.53126 23.5546 3.44604 23.5424C3.39139 23.5348 3.33303 23.6093 3.2932 23.6367C3.15796 23.7329 3.0783 23.5763 2.969 23.5263C2.84302 23.4688 2.69296 23.4905 2.62998 23.333C2.57347 23.1925 2.43453 23.1689 2.33727 23.0671C2.13441 22.8539 2.02047 22.5814 1.84818 22.3494C1.68423 22.1287 1.50546 21.9411 1.32853 21.7336C1.16829 21.5459 0.898734 21.313 0.873724 21.0386C0.856124 20.832 0.979322 20.6387 1.18403 20.6434C1.32298 20.6472 1.32113 20.7321 1.37578 20.8443C1.41375 20.9235 1.55918 20.8179 1.6055 20.7887C1.71017 20.7217 1.79631 20.8632 1.90562 20.7717C1.98898 20.7028 2.1233 20.6925 2.22056 20.6321C2.34283 20.5557 2.46047 20.6227 2.57718 20.5161C2.59385 20.502 2.8069 20.3087 2.77077 20.2813C2.68185 20.2134 2.61608 20.2653 2.5531 20.3266C2.46602 20.4114 2.31226 20.4077 2.21037 20.3662C2.02603 20.2917 2.17239 20.5322 2.00751 20.5237C1.88987 20.5171 1.76945 20.5444 1.65366 20.5048C1.43506 20.4284 1.22849 20.2936 1.02749 20.1719C0.863535 20.0729 0.640297 19.8852 0.594909 19.6806C0.554152 19.4995 0.389272 19.3996 0.282748 19.259C0.247549 19.2128 0.214202 19.2694 0.172519 19.259C0.129909 19.2487 0.0798918 19.177 0.0474716 19.1459C-0.0785044 19.0308 0.0826699 18.9761 0.113238 18.8799C0.151216 18.7602 0.104899 18.3235 0.360556 18.3858C0.430029 18.4028 0.463376 18.4792 0.535627 18.4914C0.589352 18.5008 0.638445 18.4791 0.691244 18.4999C0.802399 18.5452 0.840379 18.3943 0.814443 18.3047C0.788506 18.216 0.832967 18.0444 0.922818 18.0086C1.01637 17.9708 1.12568 18.0444 1.2146 18.067C1.33502 18.0972 1.54158 18.216 1.66107 18.1774C1.76297 18.1434 1.83151 18.0218 1.95008 18.0727C2.06401 18.1208 2.10292 18.2726 2.215 18.3207C2.31319 18.3632 2.42805 18.3594 2.53272 18.3764C2.5216 18.3075 2.52901 18.2104 2.56884 18.1529C2.61145 18.0916 2.71056 18.1368 2.76985 18.1293C2.93288 18.1076 3.06626 17.9831 3.23114 17.9746C3.34508 17.969 3.36545 18.3037 3.35434 18.3066C3.40899 18.2896 3.47198 18.3764 3.4868 18.2924C3.50625 18.1727 3.55164 18.2085 3.59795 18.1255C3.82212 17.7257 3.39139 17.1212 3.29506 16.7373C3.2543 16.5742 3.43308 16.4007 3.20243 16.4375C3.09127 16.4554 2.98753 16.4733 2.90323 16.3799C2.78282 16.2451 2.69019 16.0602 2.63368 15.8848C2.57533 15.7038 2.64572 15.5642 2.72816 15.4086C2.79022 15.2907 2.90138 15.0814 2.71149 15.0936C2.54105 15.1049 2.44379 14.9757 2.28817 14.9522C1.99454 14.9097 1.94081 14.2571 2.08254 14.0506C2.18721 13.8997 2.35024 13.8243 2.49567 13.7328C2.67722 13.6196 2.7152 13.4735 2.83561 13.3047C3.05144 13.0019 3.27653 12.8831 3.62852 12.8624C3.75172 12.8548 3.71281 12.9454 3.69799 13.0444C3.67854 13.1745 3.67206 13.2566 3.73041 13.3782C3.77302 13.4659 3.93327 13.3141 3.99534 13.2745C4.09815 13.2094 4.27971 13.2198 4.39642 13.1972C4.53444 13.1708 4.92533 13.2886 5.00036 13.1321C5.05316 13.0208 5.0087 12.902 5.11522 12.8133C5.20878 12.7351 5.33383 12.7124 5.40608 12.6021C5.48204 12.4852 5.46536 12.3277 5.56633 12.2239C5.66915 12.1202 5.70435 12.04 5.77752 11.9165C5.86552 11.7675 6.0267 11.9212 6.13693 11.8665C6.20084 11.8345 6.30458 11.6553 6.35368 11.5949C6.45557 11.4695 6.50837 11.3101 6.601 11.1781C6.68807 11.0546 6.75291 10.997 6.802 10.8461C6.85666 10.683 6.8372 10.4661 6.95392 10.3331C7.02895 10.2464 7.15863 10.2539 7.25682 10.2228C7.36149 10.1888 7.45689 10.1209 7.54304 10.0502C7.63196 9.97854 7.53841 9.80031 7.56064 9.70412C7.61714 9.45798 7.88855 9.36274 8.00711 9.16187C8.0664 9.06096 8.07103 8.89687 8.18033 8.83463C8.29241 8.77145 8.32483 8.82709 8.27018 8.69035C8.197 8.50928 8.38875 8.48853 8.38412 8.34425C8.37948 8.24994 8.35818 8.08491 8.3063 8.00758C8.21368 7.8699 8.21831 7.86895 8.31279 7.7473C8.41098 7.62188 8.41005 7.55303 8.56845 7.51625C8.69442 7.48702 8.73425 7.36631 8.83522 7.29653C8.88339 7.26352 9.01678 7.32576 9.07976 7.32105C9.30115 7.3069 9.28725 6.93628 9.06957 6.95797C8.97972 6.96363 9.00102 6.8731 8.92507 6.8731C8.838 6.8731 8.72962 6.8599 8.6444 6.84009C8.57678 6.82406 8.49064 6.74767 8.4647 6.67506C8.44525 6.61848 8.50731 6.45439 8.49342 6.4327C8.46656 6.39215 8.24517 6.41761 8.20719 6.42138C8.11364 6.42987 8.05065 6.25352 7.98118 6.19977C7.77554 6.04039 7.51988 6.10923 7.32073 5.89988C7.17623 5.74616 7.30776 5.59622 7.31424 5.42741C7.31517 5.3944 7.3374 5.03228 7.4041 5.11243C7.31517 5.00493 7.32907 4.86913 7.32073 4.73522C7.31332 4.62394 7.21606 4.62771 7.18919 4.50417C7.16048 4.37214 7.26052 4.40327 7.29109 4.2967C7.32907 4.15713 7.27256 4.19579 7.20957 4.10243C7.16233 4.03265 7.19661 3.93929 7.20587 3.86196C7.21606 3.77614 7.16696 3.73842 7.15863 3.67335C7.15863 3.6658 7.46152 3.47625 7.49024 3.40835C7.55971 3.24332 7.76628 3.33951 7.84964 3.21126C7.89874 3.13581 7.89133 3.10186 7.97562 3.05471C8.02193 3.02925 8.04694 2.93117 7.99229 2.89439C7.93301 2.85479 7.82463 2.89251 7.77276 2.83687C7.72274 2.78217 7.67365 2.70578 7.61436 2.66523C7.57361 2.636 7.53563 2.28236 7.51895 2.28802C7.43374 2.31725 7.40039 2.49077 7.28553 2.35026C7.24848 2.30499 7.22162 2.23426 7.18827 2.18428C7.13177 2.10035 7.0484 2.04943 6.98911 1.95795C6.97059 1.92872 6.93261 1.88345 6.89741 1.87496C6.78904 1.84573 6.63898 1.86176 6.52967 1.87496C6.25827 1.90797 6.4037 1.65712 6.3157 1.5166C6.28235 1.46379 6.23233 1.23086 6.30736 1.1988C6.41481 1.15259 6.43797 1.17711 6.52782 1.07998C6.61397 0.987557 6.75939 1.08469 6.71771 0.912113C6.69919 0.835726 6.76866 0.762169 6.83628 0.767827C7.00671 0.781973 6.89278 0.391553 7.08174 0.456623C7.21513 0.501889 7.33555 0.365147 7.47172 0.420787C7.54767 0.451908 7.60325 0.512262 7.69125 0.483971C7.83575 0.438705 7.70236 0.221804 7.84501 0.237836C7.92097 0.245381 8.04972 0.376464 8.10808 0.26707C8.1405 0.206716 8.29148 0.169938 8.35262 0.123729C8.47952 0.026595 8.46378 0.138816 8.58234 0.162392C8.65644 0.176538 8.70276 0.0860056 8.74445 0.0369672C8.81299 -0.0431916 8.87134 0.0209354 8.91395 0.097322C8.94359 0.151076 9.08347 0.232179 9.11311 0.123729C9.13904 0.0275381 9.22982 0.145418 9.29837 0.119013C9.41786 0.073747 9.38266 0.00490447 9.51975 0.0539428C9.60127 0.0831772 9.53087 0.213317 9.60312 0.256697C9.69575 0.311393 9.69852 0.271787 9.75225 0.383066C9.84302 0.56696 9.92917 0.64146 10.0765 0.7716C10.1644 0.849873 10.1228 0.963981 10.246 1.03094C10.3599 1.09412 10.4544 1.11204 10.5785 1.1375C10.6943 1.16108 10.7026 1.33648 10.8166 1.38741C10.9185 1.43267 10.9509 1.45719 10.9796 1.56847C11.0416 1.81461 11.063 2.01265 11.3297 1.97681C11.5539 1.94663 11.7114 1.96738 11.7938 2.22106C11.8253 2.31536 11.7984 2.43985 11.9114 2.4455C11.942 2.44739 12.0161 2.47285 12.0411 2.44173C12.0698 2.4059 12.1023 2.37855 12.1495 2.37855C12.2458 2.37855 12.4487 2.31536 12.5367 2.2635C12.633 2.20597 12.6238 2.06263 12.7155 2.00416C12.8757 1.90325 13.2249 2.07394 13.2833 1.8429C13.2963 1.79292 13.5436 1.89571 13.6075 1.87873C13.7381 1.8429 13.8279 1.74294 13.9447 1.68069C14.0345 1.63354 14.053 1.75802 14.1012 1.81178C14.1697 1.88911 14.3263 1.94758 14.4245 1.95229C14.6236 1.96267 14.6162 2.02774 14.7524 2.1541C14.8265 2.22389 14.996 2.28424 15.0303 2.39647C15.0516 2.48134 15.0544 2.68221 15.0247 2.75954Z" fill="url(#paint0_linear_380_1909)"/>
<path d="M15.4738 10.4227C15.4247 10.5292 15.3034 10.5028 15.2497 10.5971C15.2061 10.6735 15.1691 10.7292 15.1024 10.7858C15.0607 10.8216 15.0477 10.8801 15.0431 10.9348C15.0311 11.0649 14.9773 11.0781 14.9236 11.1809C14.8652 11.2931 14.9384 11.3855 14.9273 11.4987C14.9171 11.5977 14.8356 11.6317 14.8254 11.7222C14.8152 11.8156 14.8569 11.891 14.7448 11.9268C14.6513 11.9561 14.6401 12.0381 14.7133 12.1145C14.7281 12.1296 14.7698 12.1654 14.8208 12.2031H14.8217C15.0079 13.0764 15.2182 15.964 11.4055 20.0861C8.45251 23.2773 6.67958 25.5576 5.94318 28.1538C5.93855 28.1246 5.92002 28.0991 5.86537 28.051C5.84314 28.0321 5.90242 27.8549 5.90057 27.819C5.89316 27.6229 5.78942 27.4946 5.76996 27.3202C5.75792 27.2145 5.67641 27.2183 5.62916 27.1315C5.58192 27.0429 5.69308 26.9297 5.60601 26.876C5.54765 26.8411 5.4402 26.744 5.45873 26.6628C5.47447 26.5902 5.5634 26.5214 5.50597 26.4459C5.39481 26.2988 5.49763 26.2856 5.48837 26.1253C5.48096 26.0065 5.41704 25.8971 5.41334 25.767C5.41149 25.667 5.45873 25.5435 5.4365 25.4492C5.40963 25.336 5.3346 25.3171 5.38648 25.1842C5.46151 24.9918 5.1688 24.8833 5.31886 24.6598C5.41982 24.5099 5.40871 24.3118 5.43186 24.1402C5.44946 24.0016 5.62917 23.9478 5.63287 23.8158C5.63472 23.7338 5.61064 23.68 5.58285 23.6064C5.53283 23.4754 5.57729 23.3895 5.47911 23.2754C5.40315 23.1868 5.49115 23.1443 5.45688 23.0765C5.44854 23.0604 5.4402 23.0472 5.43001 23.035C6.19791 21.3064 7.94768 19.2628 10.3644 16.0687C13.6472 11.7297 13.1711 8.31592 13.1711 8.31592C13.1757 8.37061 13.2368 8.3923 13.2452 8.45077C13.2563 8.52056 13.2757 8.58846 13.3461 8.61392C13.3304 8.60826 13.435 8.28857 13.5823 8.32912C13.7667 8.38004 13.8195 8.59506 13.8352 8.76764C13.8509 8.94021 14.0158 8.96756 14.1464 8.97982C14.215 8.98642 14.2863 8.98737 14.353 9.00623C14.4364 9.0298 14.4679 9.14485 14.5596 9.12788C14.7226 9.09581 14.8597 9.33063 14.8838 9.4702C14.894 9.53339 14.9032 9.67862 14.9903 9.63052C15.1005 9.56922 15.07 9.69559 15.1783 9.70785C15.2987 9.72106 15.3386 9.63429 15.4284 9.75595C15.4942 9.84554 15.4942 9.9521 15.5979 10.0087C15.7526 10.0945 15.5266 10.3067 15.4738 10.4227Z" fill="url(#paint1_radial_380_1909)"/>
<path d="M14.3735 23.3642C10.597 28.1209 8.49149 31.4791 7.98573 34.8005C7.97276 34.7552 7.96072 34.709 7.94776 34.6637C7.93664 34.6222 7.90978 34.5044 7.86809 34.4808C7.77176 34.4251 7.84031 34.3233 7.80881 34.2281C7.78565 34.1611 7.70043 34.1404 7.68654 34.0687C7.65968 33.9357 7.66801 33.7839 7.65319 33.6481C7.64022 33.5198 7.63374 33.4019 7.63745 33.2746C7.64208 33.1577 7.59206 33.1021 7.55037 33.0012C7.50499 32.8936 7.49665 32.7956 7.43551 32.6918C7.40402 32.6409 7.36141 32.5777 7.36141 32.5127C7.37253 32.4806 7.38457 32.4504 7.39939 32.4212C7.37345 32.2345 7.28823 32.1288 7.19375 31.9949C7.14095 31.9214 7.18819 31.877 7.18634 31.8007C7.18449 31.7233 7.04925 31.7309 7.00386 31.7092C6.97144 31.6931 6.99089 31.5602 6.98719 31.5281C6.977 31.4404 6.90938 31.4829 6.86306 31.4216C6.76951 31.2961 6.79637 31.0868 6.66298 31C6.47217 30.8755 6.65928 30.7567 6.69911 30.7699C6.67039 30.7444 6.60278 30.7624 6.57128 30.7454C6.52219 30.7209 6.52404 30.6379 6.512 30.5917C6.49625 30.5285 6.48791 30.3946 6.42307 30.3748C6.41844 30.3729 6.41474 30.3701 6.40918 30.3644C6.76673 27.2269 8.43962 24.6458 11.9744 20.8255C15.497 17.0165 15.7471 13.9922 15.5943 12.5569C15.6499 12.571 15.712 12.5776 15.7842 12.5861C16.0315 12.6135 16.0417 12.9011 16.2548 12.985C16.2399 12.9313 16.2622 12.8539 16.3261 12.9152C16.3641 12.952 16.3641 13.018 16.3733 13.068C16.3909 13.1661 16.4484 13.1934 16.5169 13.2142C17.1848 14.823 18.0916 18.681 14.3735 23.3642Z" fill="url(#paint2_radial_380_1909)"/>
<path d="M33.5125 12.641C33.5616 12.8598 33.8553 12.9315 33.8479 13.1305C33.8423 13.2851 33.8368 13.2898 33.6932 13.2776C33.5635 13.2663 33.4866 13.2191 33.4097 13.106C33.3115 12.9607 33.2754 12.9975 33.1254 13.0814C33.042 13.1286 32.9836 13.0616 32.9132 13.1258C32.8317 13.2003 32.7474 13.1889 32.6659 13.2644C32.5714 13.353 32.5483 13.4973 32.4538 13.585C32.3436 13.6869 32.2834 13.7633 32.2185 13.9047C32.1713 14.0113 32.1176 14.1254 32.0314 14.2008C31.948 14.2744 31.8415 14.2357 31.76 14.2932C31.6387 14.3791 31.7313 14.5545 31.7609 14.661C31.811 14.8374 31.8573 14.9807 31.8045 15.158C31.7637 15.29 31.7924 15.4607 31.7174 15.5786C31.6498 15.6852 31.634 15.8248 31.5442 15.9143C31.4849 15.9747 31.2876 16.1322 31.2987 16.2303C31.3089 16.3312 31.5006 16.3745 31.4914 16.4519C31.4756 16.5839 31.4775 16.7188 31.459 16.8508C31.4386 16.9951 31.3209 17.0724 31.2913 17.2082C31.2765 17.2752 31.2996 17.3515 31.2617 17.4128C31.2265 17.4685 31.1551 17.4713 31.1246 17.5307C31.0829 17.6109 31.056 17.8202 31.0421 17.9136C31.0273 18.006 31.0921 18.0871 31.0523 18.1786C31.0051 18.2852 30.8726 18.3097 30.7763 18.3002C30.7207 18.2955 30.6633 18.254 30.6068 18.2644C30.5642 18.272 30.5558 18.3304 30.5067 18.3342C30.4104 18.3408 30.2918 18.1097 30.2075 18.2833C30.1418 18.4172 30.2131 18.5803 30.2372 18.7142C30.2677 18.8821 30.1594 18.9217 30.1492 19.0622C30.1399 19.1952 30.2659 19.2565 30.227 19.4074C30.1862 19.5715 30.1825 19.6601 30.0167 19.6771C29.8722 19.6922 29.8963 19.827 29.9139 19.9327C29.9519 20.175 30.0352 20.3815 30.0084 20.6324C29.9945 20.7616 30.1075 20.8314 30.0408 20.9898C30.0028 21.0794 29.925 21.1567 29.8935 21.2482C29.8657 21.3293 29.8778 21.5424 29.7416 21.517C29.7073 21.5104 29.4971 21.3915 29.4924 21.3915C29.4517 21.4708 29.4267 21.6292 29.3044 21.5057C29.196 21.3963 29.2479 21.3227 29.2359 21.1737C29.2257 21.0539 29.1404 20.9464 29.133 20.8455C29.1284 20.7786 29.1543 20.7135 29.1543 20.6475C29.1543 20.5786 29.0978 20.5494 29.096 20.4824C29.0913 20.3202 29.1479 20.2665 29.0339 20.1184C28.9607 20.0222 28.8468 19.9666 28.9079 19.8251C28.9404 19.7506 29.0071 19.5696 28.9672 19.4894C28.9181 19.3923 28.807 19.3517 28.8042 19.232C28.7996 19.0632 28.857 19.0132 28.7079 18.9198C28.6402 18.8774 28.6671 18.6878 28.5698 18.8708C28.5374 18.933 28.5504 18.9915 28.5439 19.0585C28.5356 19.1396 28.4781 19.1886 28.4448 19.2555C28.3994 19.348 28.4179 19.4715 28.417 19.5715C28.417 19.6384 28.4494 19.7544 28.4142 19.8101C28.38 19.8648 28.2725 19.9185 28.2179 19.9525C28.1224 20.0128 27.8279 19.8874 27.915 19.7459C27.8334 19.8789 27.8233 19.7921 27.713 19.8497C27.6046 19.9072 27.6278 19.5658 27.6352 19.5205C27.6778 19.2405 27.4055 19.0283 27.4305 18.7227C27.45 18.4926 27.5139 18.1909 27.7306 18.0984C27.9094 18.022 28.0409 17.7325 28.2688 17.8334C28.2771 17.7363 28.2188 17.5666 28.3485 17.5468C28.3966 17.5401 28.468 17.5194 28.4837 17.4628C28.5013 17.3996 28.4809 17.3214 28.5041 17.2629C28.5235 17.2148 28.5532 17.1931 28.5541 17.1375C28.555 17.0743 28.492 17.0394 28.5143 16.9705C28.5393 16.9328 28.568 16.8979 28.5995 16.8659C28.4902 16.7404 28.3253 16.7603 28.1966 16.8244C28.04 16.9036 27.9483 16.8178 27.7918 16.8414C27.6528 16.8621 27.5231 16.7801 27.3916 16.8055C27.2314 16.8385 27.1813 16.8942 27.01 16.8414C26.833 16.7867 26.7506 17.0111 26.5524 16.9357C26.4255 16.8876 26.3477 16.8838 26.2198 16.8744C26.1272 16.8678 25.9873 16.8234 25.8975 16.7933C25.7882 16.7555 25.6891 16.7093 25.7095 16.5688C25.7187 16.5037 25.8197 16.201 25.8021 16.1888C25.7057 16.1171 25.6483 16.0351 25.7187 15.9021C25.7539 15.8389 25.8049 15.5918 25.6631 15.7125C25.5603 15.8002 25.451 15.8776 25.3297 15.8002C25.2472 15.7484 25.1898 15.7474 25.1148 15.6682C25.0555 15.605 24.8962 15.407 24.7924 15.4636C24.7313 15.4966 24.7906 15.6446 24.7267 15.7012C24.635 15.7814 24.5118 15.6673 24.4562 15.5833C24.4275 15.539 24.345 15.2834 24.2857 15.3759C24.207 15.4975 24.0662 15.5107 24.056 15.6795C24.0523 15.737 23.9384 15.9134 24.0486 15.9568C24.1051 15.9794 24.1718 15.9813 24.207 16.0388C24.2663 16.1331 24.358 16.1708 24.4163 16.2755C24.4701 16.3708 24.6183 16.2293 24.6979 16.2642C24.81 16.3123 24.7341 16.4821 24.8545 16.5179C25.0064 16.5632 24.9925 16.5999 25.0231 16.7621C25.0824 17.0677 24.6507 16.9507 24.5275 17.0394C24.4339 17.1063 24.3886 17.0696 24.3737 17.2242C24.3598 17.36 24.3274 17.4855 24.1857 17.5053C23.9412 17.5383 24.1644 17.8994 24.2691 17.9938C24.282 18.0051 24.2978 18.0136 24.3145 18.0192C23.4224 20.2561 21.5004 19.1961 21.0817 20.4259C20.6556 21.6801 20.2138 20.9889 19.8979 20.5041C19.5829 20.0194 18.7613 19.7837 17.8341 20.8766C17.2329 21.5858 16.6447 21.7527 16.3066 21.7838C17.7424 19.2367 17.9369 17.0243 17.7952 15.4937C17.7257 14.7402 17.572 14.0886 17.4006 13.5596C17.4163 13.5765 17.4293 13.5935 17.4395 13.6105C17.4988 13.7189 17.5849 13.6067 17.6516 13.5869C17.7507 13.5567 17.924 13.5464 17.9693 13.6718C17.9888 13.7265 17.9267 13.8642 17.9944 13.8925C18.0647 13.9217 18.2231 13.9038 18.3037 13.9113C18.3352 13.9141 18.5131 13.9962 18.5131 14.0084C18.5344 13.9915 18.5362 13.9273 18.5483 13.9047C18.5807 13.8444 18.6594 13.8283 18.7178 13.8255C18.7363 13.8236 18.941 13.8953 18.9206 13.9113C19.0253 13.8378 19.1309 13.767 19.2513 13.734C19.3088 13.7189 19.4672 13.7369 19.5135 13.7717C19.5718 13.8151 19.57 13.9283 19.6552 13.9377C19.7951 13.9537 19.8794 13.8708 19.9646 14.0113C20.0479 14.1499 20.0368 14.2367 20.0581 14.3894C20.0739 14.4998 20.4713 14.5337 20.5556 14.6148C20.6519 14.7063 20.6769 14.7497 20.8038 14.7374C20.8983 14.7289 20.927 14.5978 21.0382 14.6243C21.1549 14.6516 21.1558 14.7619 21.2253 14.843C21.3188 14.9534 21.3753 14.827 21.4791 14.8628C21.5402 14.8836 21.581 14.9477 21.6458 14.9562C21.7069 14.9647 21.7255 14.9043 21.7829 14.8959C21.8885 14.8808 21.9209 15.025 21.9969 15.0741C22.0886 15.1344 22.2358 15.1656 22.3396 15.1203C22.4202 15.0845 22.4739 14.9836 22.5693 14.9986C22.7138 15.0222 22.8046 15.1797 22.9537 15.1863C23.1288 15.1929 23.3104 15.175 23.4771 15.1146C23.5466 15.0892 23.6373 15.0684 23.6975 15.1316C23.7624 15.1995 23.7633 14.9741 23.7661 14.9609C23.792 14.8317 23.7772 14.6073 23.7105 14.4941C23.6512 14.3932 23.5215 14.2423 23.5336 14.1131C23.5438 14.0009 23.6086 13.9207 23.6225 13.8104C23.6383 13.6784 23.6457 13.5784 23.7059 13.4615C23.7652 13.3455 23.8634 13.32 23.7559 13.1833C23.7003 13.1116 23.6892 13.0418 23.7401 12.9475C23.7596 12.9126 23.9134 12.9023 23.9495 12.9004C24.0773 12.8928 24.0847 12.9202 24.1737 12.8089C24.3191 12.6269 24.4627 12.6354 24.5896 12.8513C24.6664 12.9834 24.6581 13.0145 24.6674 13.1663C24.672 13.2285 24.5321 13.4549 24.5608 13.4785C24.6007 13.5105 24.5747 13.5746 24.6183 13.6011C24.6609 13.6265 24.7053 13.6473 24.7257 13.7001C24.7665 13.8057 24.6081 13.9094 24.6488 13.9849C24.6979 14.0726 24.7443 14.1631 24.8267 14.2159C24.9064 14.265 24.9981 14.4017 25.0722 14.4356C25.0953 14.446 25.2296 14.2131 25.3417 14.2998C25.3834 14.3329 25.3612 14.3649 25.3862 14.3876C25.4362 14.4328 25.5242 14.3894 25.5733 14.429C25.5733 14.43 25.6085 14.5035 25.6659 14.5299C25.8002 14.5903 25.7308 14.4715 25.7697 14.4045C25.8049 14.347 25.9049 14.3847 25.9521 14.3942C26.004 14.4036 26.054 14.3432 26.0929 14.313C26.2726 14.1754 26.3662 14.1556 26.5394 14.2904C26.7858 14.4847 26.959 14.2536 27.2063 14.248C27.3388 14.2452 27.4185 14.2791 27.5333 14.1933C27.5898 14.1518 27.7427 14.2103 27.7751 14.1452C27.8714 13.9547 28.1262 14.181 28.1382 13.9594C28.1456 13.8217 28.115 13.7501 28.179 13.6227C28.2299 13.519 28.1252 13.4502 28.0483 13.4285C27.9779 13.4087 27.5861 13.3785 27.5898 13.3125C27.5945 13.2238 27.5167 13.1493 27.5361 13.0654C27.5574 12.9768 27.4889 12.8372 27.5333 12.7759C27.6463 12.6212 27.8057 12.9918 27.8946 12.9041C28.003 12.7966 28.2373 12.7221 28.3744 12.707C28.4355 12.7014 28.492 12.7863 28.5458 12.7523C28.6152 12.7089 28.6875 12.6505 28.7449 12.5882C28.8023 12.5269 28.693 12.4251 28.7032 12.3477C28.7134 12.2657 28.8172 12.2459 28.8607 12.1761C28.8959 12.1195 28.9774 12.0318 29.0358 12.0007C29.1127 11.9592 29.2321 11.9781 29.2988 11.9281C29.3628 11.88 29.2729 11.7612 29.3063 11.7036C29.3442 11.6348 29.3813 11.4801 29.4396 11.4349C29.5286 11.3679 29.6295 11.4207 29.7212 11.4358C29.7712 11.4434 29.7805 11.3613 29.8398 11.3481C29.9046 11.334 30.0927 11.3415 30.1269 11.2642C30.1853 11.1322 30.2622 11.0463 30.3474 10.9303C30.4011 10.8577 30.3798 10.7153 30.4447 10.6606C30.5345 10.5843 30.6392 10.5531 30.7114 10.4532C30.7364 10.4183 30.8671 10.1693 30.8782 10.3419C30.8847 10.4362 31.0319 10.4673 31.0996 10.5098C31.2014 10.5729 31.2783 10.5088 31.3719 10.5578C31.5016 10.6248 31.5395 10.6748 31.6933 10.6521C31.7832 10.6399 31.798 10.4343 31.8545 10.3683C31.9471 10.2617 32.0509 10.1674 32.1555 10.075C32.2769 9.96844 32.3463 9.91846 32.4695 10.0882C32.5353 10.1778 32.4899 10.1646 32.6076 10.1797C32.7308 10.1948 32.7632 10.3306 32.6696 10.4305C32.5659 10.5409 32.5399 10.5437 32.5242 10.6804C32.5168 10.7483 32.6002 10.7446 32.6335 10.7248C32.6919 10.6899 32.6622 10.6767 32.665 10.6154C32.6687 10.5145 32.8641 10.5088 32.8743 10.5937C32.8845 10.687 32.8641 10.8342 32.9697 10.8492C33.08 10.8653 33.0485 10.9747 33.0105 11.0463C32.9558 11.1482 32.8716 11.2359 32.7956 11.3189C32.7521 11.366 32.6567 11.5235 32.7993 11.4783C32.8892 11.449 33.0383 11.3311 33.1328 11.3623C33.2254 11.3934 33.3319 11.5716 33.4357 11.4999C33.5255 11.4368 33.6135 11.4585 33.7052 11.5028C33.7451 11.5216 33.9044 11.5367 33.9183 11.565C33.9461 11.6197 33.8516 11.6914 33.8664 11.7527C33.8775 11.7951 33.9359 11.814 33.9581 11.8508C34.0331 11.9762 34.0026 12.0215 33.9044 12.1242C33.8284 12.2063 33.7626 12.3364 33.6747 12.3987C33.5589 12.4732 33.4718 12.4571 33.5125 12.641Z" fill="url(#paint3_radial_380_1909)"/>
<path d="M25.3371 21.6858C25.2501 21.9178 24.9018 21.6282 24.8416 21.7376C24.7749 21.8593 24.735 21.9149 24.6007 21.914C24.5637 21.914 24.3377 21.9923 24.3247 21.9668C24.2988 21.9159 24.3265 21.6735 24.2552 21.6735C24.1783 21.6735 24.2432 21.913 24.1719 21.9385C24.0542 21.9809 24.0533 21.9809 24.0292 22.1054C24.0098 22.2111 23.906 22.1997 23.8236 22.2158C23.7226 22.2356 23.5383 22.2092 23.4716 22.295C23.3864 22.4044 23.203 22.345 23.1038 22.4506C23.0399 22.5185 22.8991 22.6665 22.9556 22.7712C23.0223 22.8948 23.152 22.9259 23.1678 23.0805C23.1816 23.2154 23.1659 23.3795 23.0816 23.487C23.0446 23.5341 22.9102 23.619 22.9251 23.6888C22.9973 24.0208 22.6916 24.1867 22.5258 24.3999C22.3591 24.6158 22.0488 24.6743 21.82 24.778C21.7264 24.8205 21.6653 24.9251 21.5671 24.9497C21.5115 24.9638 21.4652 25.0166 21.4069 25.0176C21.3411 25.0194 21.3105 24.961 21.2559 24.9431C21.2726 24.9487 21.1901 25.16 21.1781 25.1741C21.1633 25.1911 21.1058 25.1986 21.0799 25.225C20.9854 25.3193 20.8168 25.3636 20.7779 25.4966C20.7196 25.6937 20.5111 25.6909 20.5297 25.9068C20.538 26.0115 20.4565 26.0634 20.3879 26.1134C20.3037 26.1737 20.2499 26.2671 20.186 26.3501C20.0526 26.5245 19.9711 26.7744 19.796 26.9065C19.6358 27.0291 19.4218 27.0706 19.2477 27.1724C19.0541 27.2856 19.0244 27.411 19.0115 27.6364C19.0013 27.8241 18.7818 27.9778 18.6484 28.0655C18.5131 28.156 18.3612 28.1437 18.2269 28.2192C18.1565 28.2588 18.1158 28.3474 18.0481 28.3955C17.9851 28.4408 17.9184 28.4785 17.8545 28.5219C17.7804 28.5738 17.6711 28.5417 17.6887 28.6756C17.6989 28.7482 17.7638 28.7935 17.7721 28.8623C17.7832 28.9491 17.8258 29.2084 17.7554 29.2688C17.6294 29.3791 17.5498 29.4291 17.396 29.4961C17.2775 29.547 17.1598 29.6215 17.044 29.6686C16.8986 29.7262 16.805 29.7196 16.7013 29.613C16.6439 29.5527 16.4568 29.4942 16.4234 29.614C16.4095 29.6649 16.3521 29.9865 16.3308 29.9931C16.2456 30.0195 16.2261 30.1213 16.1826 30.192C16.1251 30.2845 15.9566 30.6466 15.8148 30.5504C15.7074 30.4778 15.725 30.3222 15.5601 30.3542C15.4767 30.3703 15.4091 30.3797 15.335 30.4297C15.3017 30.4533 15.1748 30.5183 15.1692 30.5702C15.1618 30.6522 15.0886 30.8276 15.0395 30.8908C14.895 31.0813 14.8376 31.2398 14.8867 31.4972C14.9312 31.7311 15.0442 31.9301 15.0831 32.1621C15.1062 32.3045 15.0266 32.3158 14.9441 32.4223C14.8608 32.5289 14.9747 32.6751 15.0164 32.7694C15.0849 32.9259 15.1396 33.0947 15.1887 33.2598C15.2906 33.6068 14.9923 33.14 14.9367 33.3286C14.9136 33.4059 15.0497 33.4597 15.0933 33.4861C15.2137 33.5597 15.2637 33.6747 15.272 33.819C15.2813 33.9699 15.3202 34.117 15.2368 34.2443C15.1775 34.3348 15.1525 34.4867 15.0812 34.5612C15.0405 34.6036 14.8126 34.6772 14.8117 34.7186C14.8098 34.7913 14.9775 34.8648 14.9784 34.9497C14.9784 34.9978 14.7626 35.2024 14.7311 35.2307C14.6144 35.3326 14.6116 35.3637 14.568 35.5118C14.5356 35.6193 14.4939 35.7249 14.4717 35.8362C14.4523 35.9465 14.632 36.0021 14.4949 36.1144C14.3985 36.1936 14.4838 36.3247 14.5264 36.4171C14.5856 36.5416 14.5829 36.6604 14.5523 36.7924C14.5264 36.9037 14.5523 37.0423 14.5931 37.1461C14.6273 37.2366 14.5949 37.3818 14.5977 37.4818C14.5986 37.5374 14.5866 37.6355 14.6301 37.6779C14.656 37.7034 14.7051 37.7185 14.682 37.7685C14.6412 37.8524 14.4458 37.875 14.3707 37.8873C14.2188 37.9109 14.1457 37.9052 14.0039 37.8458C13.8956 37.8005 13.8242 37.8637 13.7557 37.9542C13.6751 38.0617 13.8307 38.1608 13.7909 38.19C13.6964 38.2588 13.6177 38.3654 13.5454 38.4607C13.4018 38.6464 13.2045 38.8501 13.4426 39.0548C13.501 39.1048 13.5297 39.1576 13.5778 39.2113C13.6186 39.2547 13.5436 39.283 13.5287 39.3179C13.5037 39.3735 13.3324 39.3688 13.2777 39.3829C13.1768 39.4103 13.0749 39.3914 12.973 39.4207C12.8303 39.4622 12.7812 39.5319 12.6182 39.481C12.5469 39.4584 12.3699 39.6093 12.344 39.68C12.3181 39.7517 12.3227 39.8771 12.332 39.9535C12.3477 40.0751 12.3366 40.4392 12.1986 40.4759C12.0041 40.5278 11.8068 40.6174 11.6539 40.7626C11.4881 40.9201 11.3723 41.1427 11.1565 40.8758C11.0018 40.6862 10.8008 40.7937 10.6619 40.5542C10.6081 40.4627 10.6572 40.3477 10.5377 40.3731C10.4136 40.3996 10.3386 40.2449 10.2728 40.1572C10.1867 40.0412 10.0274 40.0006 9.97548 39.8601C9.9375 39.7564 9.93565 39.6479 9.84672 39.5725C9.73649 39.4782 9.82079 39.365 9.793 39.2424C9.77077 39.1481 9.69296 39.0925 9.67258 38.9822C9.62627 38.7294 9.6133 38.5106 9.50863 38.2805C9.48547 38.2296 9.40488 38.0004 9.49288 38.0023C9.58921 38.0052 9.61237 38.1608 9.69945 38.1777C9.77448 38.1928 9.55495 37.9156 9.56143 37.9241C9.54661 37.9043 9.52345 37.8184 9.49288 37.8194C9.46972 37.8194 9.45212 37.8741 9.42619 37.8637C9.3845 37.8467 9.4336 37.6977 9.36505 37.6609C9.29743 37.6261 9.26872 37.494 9.23259 37.4308C9.19183 37.3601 9.22333 37.2385 9.21221 37.1592C9.2011 37.0791 9.13718 37.0442 9.12885 36.9593C9.11958 36.8509 9.11403 36.7575 9.04456 36.6736C8.97879 36.5925 9.02047 36.4812 8.95378 36.3944C8.88616 36.3058 8.86763 36.2502 8.81854 36.1511C8.78056 36.0776 8.7926 35.9597 8.74073 35.8984C8.68793 35.8371 8.63698 35.7767 8.58789 35.7154C8.79353 32.5421 10.5896 29.282 14.9237 23.8218C15.4777 23.1239 15.9334 22.4421 16.3048 21.7829C16.6429 21.7527 17.2302 21.5858 17.8323 20.8757C18.7595 19.7827 19.5811 20.0185 19.8961 20.5032C20.2119 20.9879 20.6538 21.6792 21.0799 20.4249C21.4986 19.1952 23.4206 20.2552 24.3127 18.0183C24.4599 18.0692 24.7434 17.9334 24.8045 18.1173C24.8388 18.222 24.7934 18.3606 24.799 18.4681C24.8064 18.6096 24.8203 18.6775 24.7239 18.7944C24.6257 18.9123 24.635 19.016 24.7601 19.1084C24.8758 19.1933 24.9147 19.282 24.9046 19.4328C24.8934 19.6082 24.9083 19.5554 25.024 19.5932C25.1232 19.6262 25.2297 19.762 25.1621 19.8751C25.0704 20.0279 25.1056 20.0458 25.1296 20.2175C25.1454 20.3306 25.0722 20.4447 25.1259 20.5504C25.1852 20.6663 25.2 20.6927 25.2065 20.8031C25.2112 20.8682 25.2473 21.0219 25.2806 21.0737C25.4057 21.2708 25.4214 21.4613 25.3371 21.6858Z" fill="url(#paint4_radial_380_1909)"/>
<defs>
<linearGradient id="paint0_linear_380_1909" x1="-0.00384526" y1="11.8352" x2="15.0461" y2="11.8352" gradientUnits="userSpaceOnUse">
<stop stop-color="#1A3654"/>
<stop offset="1" stop-color="#2383C4"/>
</linearGradient>
<radialGradient id="paint1_radial_380_1909" cx="0" cy="0" r="1" gradientUnits="userSpaceOnUse" gradientTransform="translate(10.4623 18.2352) scale(7.80527 7.94641)">
<stop stop-color="#F2A31D"/>
<stop offset="1" stop-color="#F17929"/>
</radialGradient>
<radialGradient id="paint2_radial_380_1909" cx="0" cy="0" r="1" gradientUnits="userSpaceOnUse" gradientTransform="translate(11.767 23.6791) scale(8.60367 8.75926)">
<stop stop-color="#2FAC40"/>
<stop offset="1" stop-color="#176A31"/>
</radialGradient>
<radialGradient id="paint3_radial_380_1909" cx="0" cy="0" r="1" gradientUnits="userSpaceOnUse" gradientTransform="translate(17.4716 10.574) scale(21.1443 21.5267)">
<stop stop-color="#2FAC40"/>
<stop offset="1" stop-color="#176A31"/>
</radialGradient>
<radialGradient id="paint4_radial_380_1909" cx="0" cy="0" r="1" gradientUnits="userSpaceOnUse" gradientTransform="translate(17.9596 23.2186) scale(12.0356 12.2533)">
<stop stop-color="#F3F3F3"/>
<stop offset="0.2802" stop-color="#C8C8C7"/>
<stop offset="0.6023" stop-color="#9D9C9B"/>
<stop offset="0.8532" stop-color="#838180"/>
<stop offset="1" stop-color="#797776"/>
</radialGradient>
</defs>
</svg>
